<svg xmlns="http://www.w3.org/2000/svg" xmlns:xlink="http://www.w3.org/1999/xlink" viewBox="0 0 504.09 205.41"><defs><style>.cls-1{clip-path:url(#clip-path);}.cls-2{fill:none;}.cls-3{isolation:isolate;}.cls-4{clip-path:url(#clip-path-2);}.cls-5{clip-path:url(#clip-path-3);}.cls-6{fill:url(#linear-gradient);}.cls-7{clip-path:url(#clip-path-4);}.cls-8{clip-path:url(#clip-path-5);}.cls-9{fill:url(#linear-gradient-2);}.cls-10{clip-path:url(#clip-path-6);}.cls-11{clip-path:url(#clip-path-7);}.cls-12{fill:url(#linear-gradient-3);}.cls-13{clip-path:url(#clip-path-8);}.cls-14{clip-path:url(#clip-path-9);}.cls-15{clip-path:url(#clip-path-10);}.cls-16{fill:url(#linear-gradient-4);}.cls-17{clip-path:url(#clip-path-11);}.cls-18{clip-path:url(#clip-path-12);}.cls-19{clip-path:url(#clip-path-13);}.cls-20{fill:url(#linear-gradient-5);}.cls-21{clip-path:url(#clip-path-14);}.cls-22{clip-path:url(#clip-path-15);}.cls-23{fill:url(#radial-gradient);}.cls-24{clip-path:url(#clip-path-16);}.cls-25{clip-path:url(#clip-path-17);}.cls-26{fill:url(#linear-gradient-6);}.cls-27{clip-path:url(#clip-path-18);}.cls-28{clip-path:url(#clip-path-19);}.cls-29{clip-path:url(#clip-path-20);}.cls-30{fill:url(#linear-gradient-7);}.cls-31{clip-path:url(#clip-path-21);}.cls-32{clip-path:url(#clip-path-22);}.cls-33{fill:url(#linear-gradient-8);}.cls-34{clip-path:url(#clip-path-23);}.cls-35{fill:url(#linear-gradient-9);}.cls-36,.cls-40{opacity:0.5;}.cls-36,.cls-47,.cls-52,.cls-66{mix-blend-mode:multiply;}.cls-37{clip-path:url(#clip-path-25);}.cls-38{mask:url(#mask);}.cls-39{fill:#a5181c;}.cls-41{clip-path:url(#clip-path-29);}.cls-42{mask:url(#mask-2);}.cls-43{fill:#fff;}.cls-44{opacity:0.8;}.cls-45{clip-path:url(#clip-path-33);}.cls-46{mask:url(#mask-3);}.cls-47{opacity:0.95;}.cls-48{clip-path:url(#clip-path-37);}.cls-49{clip-path:url(#clip-path-38);}.cls-50{mask:url(#mask-4);}.cls-51{clip-path:url(#clip-path-41);}.cls-52,.cls-55{opacity:0.6;}.cls-53{clip-path:url(#clip-path-43);}.cls-54{mask:url(#mask-5);}.cls-55{mix-blend-mode:screen;}.cls-56{clip-path:url(#clip-path-47);}.cls-57{mask:url(#mask-6);}.cls-58{clip-path:url(#clip-path-51);}.cls-59{fill:url(#linear-gradient-10);}.cls-60{opacity:0.57;}.cls-61{clip-path:url(#clip-path-53);}.cls-62{clip-path:url(#clip-path-54);}.cls-63{mask:url(#mask-7);}.cls-64{clip-path:url(#clip-path-56);}.cls-65{fill:url(#radial-gradient-2);}.cls-66{opacity:0.46;}.cls-67{clip-path:url(#clip-path-57);}.cls-68{clip-path:url(#clip-path-58);}.cls-69{mask:url(#mask-8);}.cls-70{clip-path:url(#clip-path-61);}.cls-71{mask:url(#mask-9);}</style><clipPath id="clip-path"><rect class="cls-2" x="386.17" y="138.04" width="88.57" height="37.24"/></clipPath><clipPath id="clip-path-2"><rect class="cls-2" x="386.17" y="138.04" width="88.57" height="49.07"/></clipPath><clipPath id="clip-path-3"><polygon class="cls-2" points="374.22 142.35 464.48 109.78 486.69 170.96 396.44 203.53 374.22 142.35"/></clipPath><linearGradient id="linear-gradient" x1="3220.52" y1="3685.71" x2="3223.81" y2="3685.71" gradientTransform="translate(-129915 -71911.02) rotate(-19.9) scale(30.42)" gradientUnits="userSpaceOnUse"><stop offset="0" stop-color="#fff"/><stop offset="1" stop-color="#231f20"/></linearGradient><clipPath id="clip-path-4"><rect class="cls-2" x="444.13" y="124.7" width="49.4" height="45.89"/></clipPath><clipPath id="clip-path-5"><polygon class="cls-2" points="516.09 143.03 473.8 194.71 421.58 152.27 463.87 100.58 516.09 143.03"/></clipPath><linearGradient id="linear-gradient-2" x1="3228.14" y1="4217.55" x2="3231.43" y2="4217.55" gradientTransform="translate(60278.51 1976.73) rotate(129.2) scale(11.26)" xlink:href="#linear-gradient"/><clipPath id="clip-path-6"><rect class="cls-2" x="354.76" y="44.25" width="125.71" height="101.52"/></clipPath><clipPath id="clip-path-7"><polygon class="cls-2" points="304.64 104 406.48 -17.41 530.59 86.02 428.74 207.44 304.64 104"/></clipPath><linearGradient id="linear-gradient-3" x1="3309.71" y1="3575.52" x2="3312.99" y2="3575.52" gradientTransform="translate(-88976.16 4623.64) rotate(-50.1) scale(18.37)" xlink:href="#linear-gradient"/><clipPath id="clip-path-8"><rect class="cls-2" x="378.74" y="165.2" width="53.27" height="11.63"/></clipPath><clipPath id="clip-path-9"><rect class="cls-2" x="378.74" y="165.2" width="53.27" height="15.12"/></clipPath><clipPath id="clip-path-10"><polygon class="cls-2" points="376.82 165.53 430.53 156.47 433.93 176.5 380.23 185.56 376.82 165.53"/></clipPath><linearGradient id="linear-gradient-4" x1="3129.66" y1="3600.34" x2="3132.95" y2="3600.34" gradientTransform="translate(-61839.7 -50934.91) rotate(-9.6) scale(16.88)" xlink:href="#linear-gradient"/><clipPath id="clip-path-11"><rect class="cls-2" x="376.24" y="116.93" width="119.69" height="49.81"/></clipPath><clipPath id="clip-path-12"><rect class="cls-2" x="375.05" y="109.72" width="120.89" height="85.79"/></clipPath><clipPath id="clip-path-13"><polygon class="cls-2" points="515.35 157.5 398.42 213.09 356.82 126.15 473.76 70.57 515.35 157.5"/></clipPath><linearGradient id="linear-gradient-5" x1="3326.03" y1="3962.52" x2="3329.32" y2="3962.52" gradientTransform="translate(143938.46 65465.01) rotate(154.5) scale(30.47)" xlink:href="#linear-gradient"/><clipPath id="clip-path-14"><rect class="cls-2" x="318.08" y="20.47" width="170.24" height="179.39"/></clipPath><clipPath id="clip-path-15"><polygon class="cls-2" points="247.18 54.95 455.61 -46.38 559.23 165.4 350.81 266.73 247.18 54.95"/></clipPath><radialGradient id="radial-gradient" cx="3206.48" cy="3617.38" r="3.3" gradientTransform="matrix(16.23, -7.89, 9.32, 19.05, -85338.88, -43488.1)" gradientUnits="userSpaceOnUse"><stop offset="0" stop-color="#fff"/><stop offset="0.01" stop-color="#fff"/><stop offset="0.12" stop-color="#dbdada"/><stop offset="0.29" stop-color="#a4a2a2"/><stop offset="0.46" stop-color="#767374"/><stop offset="0.62" stop-color="#524f4f"/><stop offset="0.76" stop-color="#383435"/><stop offset="0.9" stop-color="#282526"/><stop offset="1" stop-color="#231f20"/></radialGradient><clipPath id="clip-path-16"><rect class="cls-2" x="321.26" y="45.73" width="48.59" height="70.99"/></clipPath><clipPath id="clip-path-17"><polygon class="cls-2" points="364.31 35.6 390.42 104.83 333.78 126.05 307.68 56.83 364.31 35.6"/></clipPath><linearGradient id="linear-gradient-6" x1="3029.99" y1="3928.42" x2="3033.27" y2="3928.42" gradientTransform="translate(44329.13 -71000.65) rotate(69.4) scale(16.85)" xlink:href="#linear-gradient"/><clipPath id="clip-path-18"><rect class="cls-2" x="315.65" width="154.28" height="116.17"/></clipPath><clipPath id="clip-path-19"><rect class="cls-2" x="315.65" y="-0.75" width="154.28" height="116.92"/></clipPath><clipPath id="clip-path-20"><polygon class="cls-2" points="259.93 75.06 370.24 -73.54 525.65 41.1 415.34 189.69 259.93 75.06"/></clipPath><linearGradient id="linear-gradient-7" x1="3306.62" y1="3673.4" x2="3309.9" y2="3673.4" gradientTransform="matrix(18.11, -24.47, 24.47, 18.11, -149395.58, 14509.72)" gradientUnits="userSpaceOnUse"><stop offset="0" stop-color="#231f20"/><stop offset="0" stop-color="#231f20"/><stop offset="0.01" stop-color="#231f20"/><stop offset="0.04" stop-color="#363233"/><stop offset="0.13" stop-color="#656263"/><stop offset="0.23" stop-color="#8e8c8d"/><stop offset="0.33" stop-color="#b1b0b0"/><stop offset="0.43" stop-color="#cdcdcd"/><stop offset="0.55" stop-color="#e3e3e3"/><stop offset="0.67" stop-color="#f3f3f3"/><stop offset="0.81" stop-color="#fcfcfc"/><stop offset="1" stop-color="#fff"/></linearGradient><clipPath id="clip-path-21"><rect class="cls-2" x="334.45" y="26.89" width="66.68" height="52.1"/></clipPath><clipPath id="clip-path-22"><polygon class="cls-2" points="324.5 77.02 336.97 14.23 411.09 28.86 398.62 91.65 324.5 77.02"/></clipPath><linearGradient id="linear-gradient-8" x1="3516.18" y1="3489.07" x2="3519.45" y2="3489.07" gradientTransform="matrix(2.19, -11.06, 11.06, 2.19, -45906.3, 31310.14)" xlink:href="#linear-gradient"/><clipPath id="clip-path-23" transform="translate(0 -14.7)"><path class="cls-2" d="M379.2,165.75s40.44,26,86.07-4c0,0,18.54-11.1,29.64-37.18,0,0-1.73-.11-4.83-.11-16.37,0-71,3-110.88,41.26m-24-21a44.55,44.55,0,0,0,4.59,5.37C435.32,89.91,499,106.25,499,106.25c5.1-26.68-10.78-52.65-10.78-52.65-76.63,21.52-133,91.18-133,91.18"/></clipPath><linearGradient id="linear-gradient-9" x1="3216.89" y1="3754.69" x2="3220.17" y2="3754.69" gradientTransform="translate(-158018.18 -184722.52) scale(49.23)" gradientUnits="userSpaceOnUse"><stop offset="0" stop-color="#e44232"/><stop offset="0.54" stop-color="#e44232"/><stop offset="0.63" stop-color="#df3f30"/><stop offset="0.73" stop-color="#d1352b"/><stop offset="0.84" stop-color="#ba2623"/><stop offset="0.91" stop-color="#a5181c"/><stop offset="1" stop-color="#a5181c"/></linearGradient><clipPath id="clip-path-25" transform="translate(0 -14.7)"><rect class="cls-2" x="386.17" y="138.04" width="88.57" height="37.24"/></clipPath><mask id="mask" x="344.12" y="59.19" width="172.68" height="165.52" maskUnits="userSpaceOnUse"><g transform="translate(0 -14.7)"><g class="cls-1"><rect x="386.17" y="138.04" width="88.57" height="49.07"/><g class="cls-3"><g class="cls-4"><g class="cls-5"><polygon class="cls-6" points="387.25 239.41 516.8 192.66 473.66 73.89 344.12 120.64 387.25 239.41"/></g></g></g></g></g></mask><clipPath id="clip-path-29" transform="translate(0 -14.7)"><rect class="cls-2" x="444.13" y="124.7" width="49.4" height="45.89"/></clipPath><mask id="mask-2" x="375.33" y="39.75" width="187" height="186.41" maskUnits="userSpaceOnUse"><g transform="translate(0 -14.7)"><rect x="444.13" y="124.7" width="49.4" height="45.89"/><g class="cls-3"><g class="cls-7"><g class="cls-8"><polygon class="cls-9" points="459.33 54.44 375.33 157.11 478.33 240.85 562.34 138.18 459.33 54.44"/></g></g></g></g></mask><clipPath id="clip-path-33" transform="translate(0 -14.7)"><rect class="cls-2" x="354.76" y="44.25" width="125.71" height="101.52"/></clipPath><mask id="mask-3" x="193.64" y="-142.95" width="447.95" height="446.52" maskUnits="userSpaceOnUse"><g transform="translate(0 -14.7)"><rect x="354.76" y="44.25" width="125.71" height="101.53"/><g class="cls-3"><g class="cls-10"><g class="cls-11"><polygon class="cls-12" points="437.62 318.27 641.59 75.1 397.61 -128.25 193.64 114.92 437.62 318.27"/></g></g></g></g></mask><clipPath id="clip-path-37" transform="translate(0 -14.7)"><rect class="cls-2" x="378.74" y="165.2" width="53.27" height="11.63"/></clipPath><clipPath id="clip-path-38" transform="translate(0 -14.7)"><rect class="cls-2" x="378.74" y="165.2" width="53.27" height="11.63"/></clipPath><mask id="mask-4" x="372.03" y="132.42" width="66.7" height="47.81" maskUnits="userSpaceOnUse"><g transform="translate(0 -14.7)"><g class="cls-13"><rect x="378.74" y="165.2" width="53.27" height="15.12"/><g class="cls-3"><g class="cls-14"><g class="cls-15"><polygon class="cls-16" points="378.42 194.92 438.73 184.75 432.34 147.11 372.03 157.28 378.42 194.92"/></g></g></g></g></g></mask><clipPath id="clip-path-41" transform="translate(0 -14.7)"><rect class="cls-2" x="357.46" y="101.37" width="144.03" height="52.05"/></clipPath><clipPath id="clip-path-43" transform="translate(0 -14.7)"><rect class="cls-2" x="376.24" y="116.93" width="119.69" height="49.81"/></clipPath><mask id="mask-5" x="301.26" y="-5.53" width="269.65" height="265.33" maskUnits="userSpaceOnUse"><g transform="translate(0 -14.7)"><g class="cls-17"><rect x="375.05" y="109.72" width="120.89" height="85.79"/><g class="cls-3"><g class="cls-18"><g class="cls-19"><polygon class="cls-20" points="485.97 9.17 301.26 96.98 386.21 274.5 570.91 186.68 485.97 9.17"/></g></g></g></g></g></mask><clipPath id="clip-path-47" transform="translate(0 -14.7)"><rect class="cls-2" x="318.08" y="20.47" width="170.24" height="179.39"/></clipPath><mask id="mask-6" x="123.42" y="-183.64" width="559.57" height="558.22" maskUnits="userSpaceOnUse"><g transform="translate(0 -14.7)"><rect x="318.08" y="20.47" width="170.24" height="179.39"/><g class="cls-3"><g class="cls-21"><g class="cls-22"><polygon class="cls-23" points="307.15 389.28 682.99 206.56 499.26 -168.94 123.42 13.79 307.15 389.28"/></g></g></g></g></mask><clipPath id="clip-path-51" transform="translate(0 -14.7)"><path class="cls-2" d="M419.07,14.7c-38.72,0-62.32,29.9-62.32,29.9s-21.66,23.39-18.32,59c.64,7.2,1.56,9.49,1.56,9.49S362.18,56.4,415.13,34c13-5.52,24.65-8.39,40.16-11-8.3-5.75-22.72-8.27-36.21-8.27Z"/></clipPath><linearGradient id="linear-gradient-10" x1="3217.11" y1="3754.1" x2="3220.39" y2="3754.1" gradientTransform="translate(-158585.02 -185400.48) scale(49.4)" gradientUnits="userSpaceOnUse"><stop offset="0" stop-color="#e44232"/><stop offset="0.21" stop-color="#e44232"/><stop offset="0.31" stop-color="#d93b2e"/><stop offset="0.71" stop-color="#b32221"/><stop offset="0.91" stop-color="#a5181c"/><stop offset="1" stop-color="#a5181c"/></linearGradient><clipPath id="clip-path-53" transform="translate(0 -14.7)"><rect class="cls-2" x="321.26" y="45.73" width="48.59" height="70.99"/></clipPath><clipPath id="clip-path-54" transform="translate(0 -14.7)"><rect class="cls-2" x="328.75" y="48.93" width="40.59" height="63.8"/></clipPath><mask id="mask-7" x="277.8" y="-6.25" width="142.5" height="144.77" maskUnits="userSpaceOnUse"><g transform="translate(0 -14.7)"><rect x="321.26" y="45.73" width="48.59" height="70.98"/><g class="cls-3"><g class="cls-24"><g class="cls-25"><polygon class="cls-26" points="277.8 46.8 317.92 153.21 420.3 114.85 380.18 8.44 277.8 46.8"/></g></g></g></g></mask><clipPath id="clip-path-56" transform="translate(0 -14.7)"><path class="cls-2" d="M340.64,112C342,80.72,358.3,53.84,358.3,53.84l-4.92-3.34C332.81,81.91,340.64,112,340.64,112"/></clipPath><radialGradient id="radial-gradient-2" cx="2865.59" cy="4086.05" r="3.3" gradientTransform="matrix(1.77, 9.1, -9.13, 1.77, 32575.3, -33245.53)" gradientUnits="userSpaceOnUse"><stop offset="0" stop-color="#fff"/><stop offset="0.04" stop-color="#fff"/><stop offset="0.24" stop-color="#f6bdb8"/><stop offset="0.46" stop-color="#ec7b70"/><stop offset="0.61" stop-color="#e65243"/><stop offset="0.69" stop-color="#e44232"/><stop offset="1" stop-color="#e44232"/></radialGradient><clipPath id="clip-path-57" transform="translate(0 -14.7)"><rect class="cls-2" x="315.65" width="154.28" height="116.17"/></clipPath><clipPath id="clip-path-58" transform="translate(0 -14.7)"><rect class="cls-2" x="315.65" y="0.01" width="154.28" height="116.16"/></clipPath><mask id="mask-8" x="133.67" y="-214.88" width="518.24" height="516.52" maskUnits="userSpaceOnUse"><g transform="translate(0 -14.7)"><g class="cls-27"><rect x="315.65" y="-0.75" width="154.28" height="116.92"/><g class="cls-3"><g class="cls-28"><g class="cls-29"><polygon class="cls-30" points="431.63 316.34 651.91 19.6 353.95 -200.18 133.67 96.56 431.63 316.34"/></g></g></g></g></g></mask><clipPath id="clip-path-61" transform="translate(0 -14.7)"><rect class="cls-2" x="334.45" y="26.89" width="66.68" height="52.1"/></clipPath><mask id="mask-9" x="309.7" y="-16.91" width="116.2" height="110.32" maskUnits="userSpaceOnUse"><g transform="translate(0 -14.7)"><rect x="334.45" y="26.89" width="66.68" height="52.1"/><g class="cls-3"><g class="cls-31"><g class="cls-32"><polygon class="cls-33" points="407.83 108.1 425.89 17.15 327.76 -2.22 309.69 88.73 407.83 108.1"/></g></g></g></g></mask></defs><title>logo-white</title><g class="cls-3"><g id="Layer_2" data-name="Layer 2"><g id="home_page_back" data-name="home page back"><g class="cls-34"><rect class="cls-35" x="355.19" y="38.9" width="148.9" height="138.11"/></g><g class="cls-34"><g class="cls-36"><g class="cls-37"><g class="cls-37"><g class="cls-38"><g class="cls-37"><g class="cls-37"><path class="cls-39" d="M387,167.15s44.23,3,78.68-26.42l8.16,10S439.38,187.1,387,167.15" transform="translate(0 -14.7)"/></g></g></g></g></g></g><g class="cls-40"><g class="cls-41"><g class="cls-41"><g class="cls-42"><g class="cls-41"><g class="cls-41"><path class="cls-43" d="M492.88,125.35s-13.89,31.57-48.09,42.6l1.2,2s35.67-12.78,46.89-44.59" transform="translate(0 -14.7)"/></g></g></g></g></g></g><g class="cls-44"><g class="cls-45"><g class="cls-45"><g class="cls-46"><g class="cls-45"><g class="cls-45"><path class="cls-43" d="M472.84,44.9s7,7.79,7,34.16c0,0-56.87-2.4-124.41,66.07,0,0,40.88-58.68,117.43-100.23" transform="translate(0 -14.7)"/></g></g></g></g></g></g><g class="cls-47"><g class="cls-48"><g class="cls-49"><g class="cls-50"><g class="cls-48"><g class="cls-49"><path class="cls-39" d="M379.4,165.86s23.08,14.47,52,9.13l-1.59-2.27s-25.43,3.92-50.38-6.87" transform="translate(0 -14.7)"/></g></g></g></g></g></g><g class="cls-36"><g class="cls-51"><g class="cls-51"><path class="cls-39" d="M358.1,150.71S431.28,85.47,500.84,106l-.51,4.12S447.25,82.4,359.65,152.76Z" transform="translate(0 -14.7)"/></g></g></g><g class="cls-52"><g class="cls-53"><g class="cls-53"><g class="cls-54"><g class="cls-53"><g class="cls-53"><path class="cls-39" d="M377.06,154.36s73.09,41.15,118.22-30.76c0,0-22-13.88-62.92.5s-57.31,32.06-55.3,30.26" transform="translate(0 -14.7)"/></g></g></g></g></g></g><g class="cls-55"><g class="cls-56"><g class="cls-56"><g class="cls-57"><g class="cls-56"><g class="cls-56"><path class="cls-43" d="M433.94,173c29.55-14.37,39.76-54.14,22.78-88.83S402,33,372.48,47.36s-39.76,54.14-22.79,88.83,54.69,51.16,84.25,36.79" transform="translate(0 -14.7)"/></g></g></g></g></g></g></g><g class="cls-58"><rect class="cls-59" x="335.08" width="120.21" height="98.4"/></g><g class="cls-58"><g class="cls-60"><g class="cls-61"><g class="cls-62"><g class="cls-63"><g class="cls-61"><g class="cls-64"><polygon class="cls-65" points="321.26 38.03 333.74 102.03 369.85 95.03 357.37 31.04 321.26 38.03"/></g></g></g></g></g></g><g class="cls-66"><g class="cls-67"><g class="cls-68"><g class="cls-69"><g class="cls-67"><g class="cls-68"><path class="cls-39" d="M455.76,22.81S350.31-.75,340.19,112.8c0,0,24.58-2.77,53.9-34.6s62.78-55,61.68-55.39" transform="translate(0 -14.7)"/></g></g></g></g></g></g><g class="cls-40"><g class="cls-70"><g class="cls-70"><g class="cls-71"><g class="cls-70"><g class="cls-70"><path class="cls-43" d="M347.18,78.11S357,45,389.49,29.79L388,28s-33.76,17.16-40.87,50.14" transform="translate(0 -14.7)"/></g></g></g></g></g></g></g><path class="cls-43" d="M318.87,14.75h0l-.09,0h-.43a3.66,3.66,0,0,1-.43,0h-13a2.59,2.59,0,0,0-2.48,1.94l0,.2-4,22c-.79,4.46-3.5,7.12-7.21,7.12a2.34,2.34,0,0,1-2-1.08l-18.6-29-.06-.09a2.54,2.54,0,0,0-2.08-1.07H252a2.56,2.56,0,0,0-2.56,2.56,2.37,2.37,0,0,0,.22,1,2.67,2.67,0,0,0,.54.81,2.85,2.85,0,0,1,.29.35l35.54,51.84A2.35,2.35,0,0,1,284.13,75H257.26a8.44,8.44,0,0,0-8,7.79v7.34H313.7a2.55,2.55,0,0,0,2.52-2.55,2.49,2.49,0,0,0-.19-.94l0-.06,0-.05-.46-.72L298,58.36a2.35,2.35,0,0,1,1.42-3.53c.81-.2,1.6-.37,2.39-.54a31.94,31.94,0,0,0,4.55-1.21c5.81-2.29,9.18-7,10.6-14.7l1.41-7.4.58-3,1.77-9.23a2,2,0,0,1,.13-.47,2.38,2.38,0,0,0,.21-1,2.56,2.56,0,0,0-2.23-2.51" transform="translate(0 -14.7)"/><path class="cls-43" d="M212.29,14.7h-30A8.46,8.46,0,0,0,174,22.52l-.06,67v.74h.74l9.77,0a8.39,8.39,0,0,0,8.26-7.73l.08-50.35a2.35,2.35,0,0,1,2.35-2.35h13.32c7.7,0,12.3,4.42,12.3,11.79v31a2.35,2.35,0,0,1-2.36,2.35H211.7a8.46,8.46,0,0,0-8.07,7.63v7.52h36.91v-48c0-17.16-10.56-27.4-28.25-27.4" transform="translate(0 -14.7)"/><path class="cls-43" d="M137.75,14.7H106.29A8.37,8.37,0,0,0,98,23V90.06h11.5A8.42,8.42,0,0,0,117.78,82V32.18a2.35,2.35,0,0,1,2.35-2.35h13.79c7.7,0,12.3,4.4,12.3,11.79V90.06H166v-48c0-17.15-10.57-27.38-28.25-27.38" transform="translate(0 -14.7)"/><path class="cls-43" d="M11.93,98.53H.37V180.1a8.36,8.36,0,0,0,8.26,8.27H20.21V106.84a8.36,8.36,0,0,0-8.28-8.3" transform="translate(0 -14.7)"/><path class="cls-43" d="M306.93,99.17h0l-50.34,0a8.41,8.41,0,0,0-7.89,8v7.11h.74l43.63,0a2.35,2.35,0,0,1,2.36,2.35v57.9h19.77V107.4a8.38,8.38,0,0,0-8.26-8.23m-57.81,45.2v30.17H259a8.37,8.37,0,0,0,8.28-8.27V136.07h-9.9a8.37,8.37,0,0,0-8.29,8.3" transform="translate(0 -14.7)"/><path class="cls-43" d="M67.08,99.17h-30A8.45,8.45,0,0,0,28.81,107l-.07,67v.74h.74l9.77,0A8.4,8.4,0,0,0,47.52,167l.07-50.36a2.36,2.36,0,0,1,2.36-2.35H63.26c7.7,0,12.3,4.41,12.3,11.79v31a2.35,2.35,0,0,1-2.36,2.34H66.48A8.47,8.47,0,0,0,58.42,167v7.51H95.32v-48c0-17.16-10.56-27.4-28.24-27.4" transform="translate(0 -14.7)"/><path class="cls-43" d="M212.69,99.16h-30a8.46,8.46,0,0,0-8.25,7.82l-.07,67v.74h.74l9.78,0a8.39,8.39,0,0,0,8.25-7.73l.07-50.35a2.35,2.35,0,0,1,2.35-2.35h13.31c7.7,0,12.3,4.41,12.3,11.79v31a2.35,2.35,0,0,1-2.36,2.35h-6.71A8.47,8.47,0,0,0,204,167v7.5h36.91v-48c0-17.16-10.56-27.4-28.24-27.4" transform="translate(0 -14.7)"/><path class="cls-43" d="M137.76,99.16H107.89a8.45,8.45,0,0,0-7.13,7.85v7.27h33.17c7.7,0,12.3,4.41,12.3,11.79v48.44H166v-48c0-17.15-10.56-27.4-28.24-27.4" transform="translate(0 -14.7)"/><path class="cls-43" d="M316.81,205.24c0-5.25-2.45-9.76-8.22-9.76-.88,0-3.6.1-4.3.83v4.46c.27-.74,2.68-.82,3.09-.82,3,0,3.92,2.94,3.92,5.38,0,5.47-2.58,10.17-8.63,10.17h-2.17l-1.57-19.55H293.4l2.08,24.16h7.62c8.59,0,13.71-6.72,13.71-14.86m-29,14.86V195.94h-9.7v4.6h4.15V220.1Zm-10.88,0v-4.6h-3.42V195.94h-16.9v4.6H268v15H256.66v4.6Zm-37.81-24.16h-5.22c-.37,3-.78,5.94-1.16,8.92-.73,5.52-3.14,10.63-9.51,10.63H218.2l-.6-5.2h1.29c3.88,0,7.11-2.21,7.66-6.17.37-2.71.74-5.47,1.11-8.19h-5.31c-.28,2.39-.55,4.83-.83,7.22-.23,1.75-.74,3.73-2.86,3.73h-1.53l-1.2-11h-5.4l3,24.16h10.86c8.91,0,12.65-7.55,13.67-15.27ZM207.73,220.1v-4.6h-3.42V195.94h-16.9v4.6h11.36v15H187.41v4.6Zm-22.8,0A118.8,118.8,0,0,0,177.6,209a5.18,5.18,0,0,0,1.85-.6c2.49-1.34,3.54-4,4-6.67.32-1.93.6-3.87.93-5.8h-5.4c-.28,1.93-.56,3.91-.89,5.84-.18,1.06-.74,3.87-2.26,3.87h-.09a89.17,89.17,0,0,0-7.44-9.71h-6.88c1.57,1.75,3.1,3.5,4.57,5.29a17.47,17.47,0,0,1,2.53,3.31c-3.69,1.24-5.4,4-5.81,7.72-.27,2.63-.51,5.21-.78,7.83h5.45c.23-2.48.46-5,.74-7.5.13-1.28.83-4.69,2.58-4.92a97,97,0,0,1,8,12.43Zm-28.29,0V195.94H131.43v4.6h4.48v13.07c0,1-.46,1.89-1.52,1.89H131v4.6h4.34a5.78,5.78,0,0,0,6.1-6V200.55h9.64V220.1ZM97,206H91.4V220.1H97ZM112.6,220.1V195.94H91.4v4.6h15.66V220.1Zm-25.17,0v-4.6H84V195.94H67.11v4.6H78.47v15H67.11v4.6ZM63.63,209v-13h-9.7v4.6h4.15V209ZM50.36,220.1V195.94H25.15v4.6h4.48v13.07c0,1-.46,1.89-1.53,1.89H24.74v4.6h4.34a5.78,5.78,0,0,0,6.1-6V200.55h9.65V220.1ZM5.54,206H0V220.1H5.54ZM21.19,220.1V195.94H0v4.6H15.65V220.1Z" transform="translate(0 -14.7)"/></g></g></g></svg>