<svg xmlns="http://www.w3.org/2000/svg" xmlns:xlink="http://www.w3.org/1999/xlink" viewBox="0 0 34 34.02"><defs><style>.cls-1{fill:url(#linear-gradient);}</style><linearGradient id="linear-gradient" y1="17.01" x2="34" y2="17.01" gradientUnits="userSpaceOnUse"><stop offset="0" stop-color="#eb0900"/><stop offset="1" stop-color="#fb6060"/></linearGradient></defs><title>logo-symbol</title><g id="Layer_2" data-name="Layer 2"><g id="Graphics"><path class="cls-1" d="M16.18,4.06a35.65,35.65,0,0,1,8.44-2.32C22.87.53,19.84,0,17,0,8.88,0,3.92,6.3,3.92,6.3A17.15,17.15,0,0,0,.07,18.73a8.17,8.17,0,0,0,.33,2S5.06,8.79,16.18,4.06ZM31.52,8.2C15.43,12.73,3.6,27.4,3.6,27.4a9,9,0,0,0,1,1.13c15.86-12.69,29.22-9.25,29.22-9.25C34.86,13.66,31.52,8.2,31.52,8.2ZM8.64,31.82A17,17,0,0,0,26.7,31a17.47,17.47,0,0,0,6.23-7.83s-.36,0-1,0C28.48,23.13,17,23.77,8.64,31.82Z"/></g></g></svg>