<svg style="position: absolute; width: 0; height: 0; overflow: hidden;" version="1.1" xmlns="http://www.w3.org/2000/svg" xmlns:xlink="http://www.w3.org/1999/xlink">
<defs>
<symbol id="about" viewBox="0 0 32 32">
<path class="path1" d="M16 0c-8.837 0-16 7.163-16 16s7.163 16 16 16c8.837 0 16-7.163 16-16-0.012-8.832-7.168-15.988-15.999-16zM16 30.472c-7.993 0-14.472-6.479-14.472-14.472s6.479-14.472 14.472-14.472c7.993 0 14.472 6.479 14.472 14.472-0.006 7.99-6.482 14.466-14.472 14.472z"></path>
<path class="path2" d="M12.494 24.937v-0.879l1.528-0.209c0.191-0.037 0.355-0.139 0.47-0.281 0.092-0.197 0.145-0.425 0.145-0.666 0-0.057-0.003-0.114-0.009-0.169l0.001-0.129c0-0.105 0-0.303 0-0.596s0-0.534 0-0.753 0-0.502 0-1.046v-1.319l0.021-2.145c0-0.004 0-0.009 0-0.014 0-0.302-0.030-0.598-0.089-0.883-0.137-0.136-0.321-0.26-0.531-0.325-0.419-0.128-0.892-0.207-1.382-0.222l-0.008-0.764c0.898-0.036 1.739-0.248 2.499-0.603 0.567-0.287 1.086-0.672 1.528-1.132l0.912-0.002q0.052 1.685 0.052 4.374l-0.094 5.536c0 0.369 0.023 0.732 0.067 1.089 0.382 0.078 0.846 0.181 1.322 0.245 0.264 0.032 0.462 0.079 0.65 0.147l-0.019 0.737h-1.162q-1.381-0.073-3.694-0.073c-0.44 0-0.879 0-1.298 0zM14.399 8.738c-0.001-0.019-0.001-0.041-0.001-0.064 0-0.445 0.18-0.848 0.472-1.14 0.299-0.292 0.709-0.472 1.161-0.472 0.022 0 0.044 0 0.066 0.001 0.016-0.001 0.037-0.001 0.059-0.001 0.489 0 0.934 0.187 1.268 0.494 0.322 0.272 0.527 0.676 0.532 1.128-0.004 0.336-0.081 0.652-0.215 0.935-0.14 0.3-0.371 0.554-0.656 0.725-0.271 0.176-0.592 0.281-0.937 0.287-0.48-0.011-0.907-0.222-1.204-0.553-0.338-0.334-0.546-0.795-0.546-1.305 0-0.013 0-0.026 0-0.038z"></path>
</symbol>
<symbol id="form" viewBox="0 0 32 32">
<path class="path1" d="M28 7c-0.223 0-0.425 0.092-0.57 0.24l-11.8 12.24c-0.144 0.143-0.233 0.341-0.233 0.56s0.089 0.417 0.233 0.56c0.14 0.135 0.33 0.219 0.54 0.22 0.223-0 0.425-0.092 0.57-0.24l11.82-12.22c0.141-0.143 0.228-0.339 0.228-0.555s-0.087-0.412-0.228-0.555c-0.14-0.151-0.339-0.246-0.559-0.25zM31 7.070l-2.33-2.27c-0.297-0.297-0.707-0.481-1.16-0.481s-0.863 0.184-1.16 0.481l-1.9 2v-5.37c0-0.007 0-0.014 0-0.022 0-0.751-0.587-1.364-1.326-1.408-0.844-0-1.704-0-2.544-0h-12c-0.048-0.008-0.104-0.012-0.161-0.012-0.271 0-0.52 0.099-0.71 0.263l-6.709 6.379-0.83 0.8c-0.122 0.164-0.196 0.371-0.196 0.594 0 0.080 0.009 0.158 0.027 0.232l-0.001 21.993c-0.005 0.055-0.008 0.12-0.008 0.185 0 0.295 0.062 0.575 0.173 0.829 0.265 0.444 0.755 0.745 1.316 0.745 0.056 0 0.111-0.003 0.166-0.009l21.293 0.001c0.021 0.001 0.045 0.002 0.070 0.002 0.783 0 1.42-0.63 1.43-1.411v-14.161c0.002-0.019 0.003-0.042 0.003-0.065s-0.001-0.046-0.003-0.068l6.65-6.877c0.269-0.293 0.433-0.684 0.433-1.115 0-0.475-0.201-0.904-0.522-1.205zM23 1.43v0s0.050 0.030 0 0zM23 1.43v0 0zM7.42 2.43l0.22-0.21v5.32c0 0.094-0.076 0.17-0.17 0.17h-5.53zM1.39 30.58v0s0-0.020 0 0zM1.39 30.58v0 0zM23 30.6h-21.6s0 0 0 0v-21.49h6.12c0.867 0 1.57-0.703 1.57-1.57v-6.13h13.91s0 0 0 0v6.84l-2.55 2.64c-0.106-0.063-0.234-0.1-0.37-0.1h-15.080c-0.402 0.046-0.711 0.385-0.711 0.795s0.309 0.749 0.707 0.795l14.054 0-2.61 2.7c-0.082-0.037-0.178-0.059-0.28-0.060h-11.16c-0.402 0.046-0.711 0.385-0.711 0.795s0.309 0.749 0.707 0.795l10.004 0-2 2c-0.195 0.228-0.341 0.503-0.417 0.806l-7.583 0.014c-0.371 0.075-0.646 0.398-0.646 0.785s0.275 0.71 0.641 0.784l7.115 0.001-0.18 0.64c-0.24 0.84-0.45 1.66-0.58 2.12-0.082-0.037-0.178-0.059-0.28-0.060h-6.070c-0.402 0.046-0.711 0.385-0.711 0.795s0.309 0.749 0.707 0.795l6.004 0c0.171-0.001 0.328-0.061 0.451-0.161l0.579-0.139s1.27-0.32 2.56-0.67c2.77-0.77 3-1 3.13-1.14l5.28-5.44v12.86zM23 30.6v0zM30 8.45l-13.21 13.75c-1.031 0.399-2.337 0.804-3.673 1.131 0.122-1.489 0.507-2.762 0.96-4.002l13.273-13.519c0.045-0.048 0.109-0.079 0.18-0.080 0 0 0.001 0 0.001 0 0.066 0 0.126 0.027 0.169 0.070l2.38 2.3c0.044 0.045 0.071 0.107 0.071 0.175s-0.027 0.13-0.072 0.175z"></path>
</symbol>
<symbol id="gallery" viewBox="0 0 32 32">
<path class="path1" d="M26.271 17.951c0 2.691-2.181 4.872-4.872 4.872s-4.872-2.181-4.872-4.872c0-2.691 2.181-4.872 4.872-4.872s4.872 2.181 4.872 4.872z"></path>
<path class="path2" d="M29.12 8.465h-26.55c-1.421 0.006-2.57 1.159-2.57 2.581 0 0 0 0 0 0v13.605c0.006 1.415 1.154 2.56 2.57 2.56 0 0 0 0 0 0h26.55c0 0 0 0 0 0 1.416 0 2.564-1.145 2.57-2.559v-13.606c0-0.003 0-0.007 0-0.010 0-1.42-1.151-2.57-2.57-2.57 0 0-0 0-0 0zM10.488 13.419c0 0 0 0 0 0 0 0.45-0.365 0.815-0.815 0.815-0.004 0-0.007-0-0.011-0h-5.532c-0.446-0.006-0.805-0.369-0.805-0.815 0-0 0-0 0-0v-1.528c0-0 0-0 0-0 0-0.449 0.358-0.814 0.804-0.826l5.534-0c0.003-0 0.007-0 0.010-0 0.45 0 0.815 0.365 0.815 0.815 0 0 0 0 0 0zM21.399 24.929c-3.86 0-6.988-3.129-6.988-6.988s3.129-6.988 6.988-6.988c3.86 0 6.988 3.129 6.988 6.988s-3.129 6.988-6.988 6.988z"></path>
<path class="path3" d="M7.649 5.161h-0.423c-1.14 0-2.065 0.924-2.065 2.065h4.563c0 0 0-0 0-0 0-1.14-0.924-2.065-2.065-2.065-0.004 0-0.007 0-0.011 0z"></path>
</symbol>
<symbol id="map" viewBox="0 0 32 32">
<path class="path1" d="M16.060 0c-0.003 0-0.006 0-0.010 0-4.722 0-8.55 3.828-8.55 8.55 0 0.004 0 0.007 0 0.011 0 4.729 8.56 23.059 8.56 23.059s8.55-18.33 8.55-23.060c0-0.003 0-0.007 0-0.010 0-4.722-3.828-8.55-8.55-8.55 0 0 0 0-0 0zM16.060 14.16c-0.003 0-0.006 0-0.010 0-3.093 0-5.6-2.507-5.6-5.6s2.507-5.6 5.6-5.6c3.093 0 5.6 2.507 5.6 5.6 0 0 0 0 0 0 0 3.089-2.502 5.594-5.589 5.6z"></path>
</symbol>
<symbol id="menu" viewBox="0 0 32 32">
<path class="path1" d="M12.541 3.459c0-1.911 1.549-3.459 3.459-3.459s3.459 1.549 3.459 3.459c0 1.911-1.549 3.459-3.459 3.459s-3.459-1.549-3.459-3.459zM18.448 3.459c-0.010-1.335-1.094-2.413-2.43-2.413-1.342 0-2.43 1.088-2.43 2.43 0 1.336 1.078 2.42 2.412 2.43 0.006 0 0.012 0 0.018 0 1.342 0 2.43-1.088 2.43-2.43 0-0.006-0-0.012-0-0.018z"></path>
<path class="path2" d="M12.541 15.715c0-1.911 1.549-3.459 3.459-3.459s3.459 1.549 3.459 3.459c0 1.911-1.549 3.459-3.459 3.459s-3.459-1.549-3.459-3.459zM18.448 15.715c-0.010-1.335-1.094-2.413-2.43-2.413-1.342 0-2.43 1.088-2.43 2.43 0 1.336 1.078 2.42 2.412 2.43 0.006 0 0.012 0 0.018 0 1.342 0 2.43-1.088 2.43-2.43 0-0.006-0-0.012-0-0.018z"></path>
<path class="path3" d="M12.541 28.342c0-1.911 1.549-3.459 3.459-3.459s3.459 1.549 3.459 3.459c0 1.911-1.549 3.459-3.459 3.459s-3.459-1.549-3.459-3.459zM18.448 28.342c-0.005-1.338-1.091-2.422-2.43-2.422-1.342 0-2.43 1.088-2.43 2.43 0 1.336 1.078 2.42 2.412 2.43 0.006 0 0.012 0 0.018 0 1.342 0 2.43-1.088 2.43-2.43 0-0.003 0-0.006-0-0.009z"></path>
</symbol>
<symbol id="phone" viewBox="0 0 32 32">
<path class="path1" d="M15.996 0c8.838 0.006 16.001 7.172 16.001 16.011 0 1.291-0.153 2.546-0.441 3.749-0.089 0.351-0.496 0.687-0.983 0.687-0.57 0-1.032-0.462-1.032-1.032 0-0.084 0.010-0.165 0.029-0.243 0.238-0.959 0.375-2.069 0.375-3.211 0-7.701-6.243-13.944-13.944-13.944s-13.944 6.243-13.944 13.944c0 7.694 6.232 13.933 13.924 13.944 3.998 0 7.016-1.981 7.524-3.819 0.038-0.14 0.060-0.3 0.060-0.465 0-0.677-0.369-1.268-0.917-1.582-2.369 0.968-6.609-0.555-10.392-5.168v0c-5.056-6.143-4.526-12.028-0.93-12.435 1.108-0.122 1.495 0.365 2.145 2.002 0.608 1.509 1.201 2.017 0.172 2.953-0.669 0.439-1.105 1.185-1.105 2.034 0 0.168 0.017 0.333 0.050 0.492 0.207 1.309 0.781 2.473 1.612 3.402l-0.006-0.006c0.767 1.009 1.796 1.782 2.986 2.223 0.323 0.134 0.645 0.204 0.984 0.204 0.677 0 1.289-0.277 1.729-0.725 1.109-0.83 1.502-0.143 2.861 0.715 1.487 0.973 1.881 1.43 1.545 2.51-0.043 0.129-0.093 0.25-0.15 0.365 0.914 0.692 1.498 1.778 1.498 3.001 0 0.37-0.054 0.728-0.154 1.066-0.83 3.013-4.92 5.301-9.504 5.301-8.505-0.417-15.244-7.414-15.244-15.986 0-8.574 6.742-15.573 15.214-15.984z"></path>
</symbol>
<symbol id="video" viewBox="0 0 32 32">
<path class="path1" d="M24.828 18.748v8.376h0.612v-1.158h0.866v1.224h1.346v-8.508h-1.346v1.224h-0.866v-1.158h-0.612z"></path>
<path class="path2" d="M31.831 15.529l-3.689 2.56v9.694l3.689 2.56z"></path>
<path class="path3" d="M14.626 14.315h6.409c2.311-1.194 3.864-3.566 3.864-6.3 0-3.904-3.165-7.068-7.068-7.068s-7.068 3.165-7.068 7.068c0 2.734 1.553 5.106 3.824 6.281zM17.826 4.282c2.079 0 3.765 1.686 3.765 3.765s-1.686 3.765-3.765 3.765c-2.079 0-3.765-1.686-3.765-3.765s1.686-3.765 3.765-3.765z"></path>
<path class="path4" d="M3.765 14.315h4.292c1.356-0.874 2.241-2.377 2.241-4.087 0-0.026-0-0.052-0.001-0.077 0.003-0.054 0.004-0.121 0.004-0.189 0-2.455-1.934-4.458-4.361-4.569-2.443 0.116-4.372 2.117-4.372 4.569 0 0.068 0.001 0.136 0.004 0.203-0.001 0.021-0.001 0.057-0.001 0.094 0 1.69 0.865 3.178 2.176 4.045z"></path>
<path class="path5" d="M17.826 10.014c1.107 0 2.005-0.898 2.005-2.005s-0.898-2.005-2.005-2.005c-1.107 0-2.005 0.898-2.005 2.005s0.898 2.005 2.005 2.005z"></path>
<path class="path6" d="M0.988 14.814h22.353c0.546 0 0.988 0.442 0.988 0.988v14.268c0 0.546-0.442 0.988-0.988 0.988h-22.353c-0.546 0-0.988-0.442-0.988-0.988v-14.268c0-0.546 0.442-0.988 0.988-0.988z"></path>
</symbol>
</defs>
</svg>
